<svg xmlns="http://www.w3.org/2000/svg" version="1.0" width="40" height="40" viewBox="0 0 1447 1447"><path d="M680.5 6C559.7 13.7 446.2 49.7 345 112.3c-48.1 29.7-87.7 61.3-130.1 103.6-28.8 28.9-45.1 47.5-66.9 76.6C73.1 392.3 26 507.7 10.1 630.3c-4.6 35.2-5.5 50.5-5.5 93.7 0 43.1.9 58.9 5.5 93.7 15.9 122.6 63 238 137.9 337.8 21.8 29.1 38.1 47.7 66.9 76.6 42.6 42.5 81.9 73.8 130.1 103.6 208.4 128.9 469.5 142.6 690 36.2 53.8-26 103.9-58.5 152.5-99 20.9-17.4 67.1-63.6 84.4-84.4 47.7-57.4 82.9-114 110.9-178.7 68.6-158.1 77.9-336.7 26.2-501.8-28.1-89.6-73.9-172.6-137.1-248.5-17.3-20.8-63.6-67.1-84.4-84.4-66.6-55.5-136.4-96.3-214.5-125.4-59.9-22.3-120.6-35.9-189-42.2-19.7-1.9-83.3-2.7-103.5-1.5zM750 245c49.9 2.1 101.1 13.2 150.5 32.7 28.8 11.4 68 32 89.9 47.4l7 4.9h140.3c77.2 0 140.3.2 140.3.5 0 .2-5.6 10.9-12.4 23.7-29.9 56.3-92.6 174.8-95.4 180.4l-3.1 6.1 4.5 11.4c12.6 31.9 22.8 73.5 28.5 116.4 2 15.2 2.3 21 2.2 56 0 42.1-.7 51-6.9 85.5-15.1 84.4-54.7 166.7-109.9 228.5-49.2 55.2-99.9 93.3-162 121.8-28.3 13-53.3 21.8-83.2 29.3-10.4 2.6-19.3 5.2-19.9 5.8-.6.6-17.9 32.8-38.4 71.6-44.5 84.1-58.3 110-59 110-.6 0-15.1-27.1-60-112.5-20-38-36.4-69.1-36.5-69.3-.2-.2-8.8-2.5-19.1-5.2-39.2-10.1-60.5-17.9-94.9-34.5-54.2-26.1-100.2-60.7-144.3-108.5-60.9-66-101.7-148.2-117.6-237-6.2-34.5-6.9-43.4-6.9-85.5-.1-35 .2-40.8 2.2-56 5.9-44.4 16.2-85.7 30-120.3L280 538l-2.9-5.8c-1.6-3.1-26.1-49.7-54.5-103.5S171 330.6 171 330.4c0-.2 62.5-.4 138.8-.4h138.8l7-4.9c13.3-9.4 38.1-23.6 56.9-32.7 45-21.7 88.9-35.4 139.5-43.4 30.7-4.8 55.3-5.8 98-4z"/><path d="M262.8 370.7c-13.1.2-23.8.6-23.8.9 0 .6 2.4 5.2 103.3 196.9C490.4 850 716 1277.6 720.7 1285.9l2.5 4.3 5.3-9.8c174.4-328.1 481.5-907.8 481.5-909 0-.2-65.1-.3-144.7-.2l-144.8.3-97.7 234c-53.7 128.7-98.7 236.2-99.8 239-1.7 3.9-2.3 4.7-3 3.4-1-1.6-24.7-66.2-96.4-262.4-24.5-67.1-52.1-142.7-61.4-168l-16.8-46-42.5-.6c-42.1-.6-194.5-.7-240.1-.2z"/></svg>