<?xml version="1.0" standalone="no"?>
<!DOCTYPE svg PUBLIC "-//W3C//DTD SVG 20010904//EN"
 "http://www.w3.org/TR/2001/REC-SVG-20010904/DTD/svg10.dtd">
<svg version="1.0" xmlns="http://www.w3.org/2000/svg"
 width="700.000000pt" height="700.000000pt" viewBox="0 0 700.000000 700.000000"
 preserveAspectRatio="xMidYMid meet">
<metadata>
Created by potrace 1.11, written by Peter Selinger 2001-2013
</metadata>
<g transform="translate(0.000000,700.000000) scale(0.100000,-0.100000)"
fill="#000000" stroke="none">
<path d="M3285 6969 c-120 -8 -210 -17 -285 -29 -30 -5 -73 -12 -94 -15 -21
-3 -48 -7 -60 -10 -12 -3 -32 -7 -46 -9 -52 -9 -269 -66 -365 -96 -269 -86
-537 -211 -790 -368 -49 -31 -94 -60 -100 -64 -5 -5 -55 -41 -110 -81 -275
-200 -558 -488 -763 -775 -264 -368 -447 -765 -551 -1195 -22 -89 -42 -178
-44 -197 -3 -19 -13 -82 -21 -140 -25 -160 -30 -254 -30 -500 0 -201 6 -345
18 -406 2 -12 7 -45 11 -75 5 -44 25 -165 40 -239 18 -89 91 -350 111 -397 8
-17 14 -34 14 -37 0 -4 21 -59 46 -124 56 -142 171 -373 248 -501 60 -99 155
-243 166 -251 3 -3 17 -21 30 -40 31 -44 33 -47 123 -155 124 -149 363 -383
494 -483 26 -20 57 -45 68 -55 29 -26 267 -185 351 -235 194 -113 460 -231
689 -305 159 -51 387 -107 495 -121 19 -3 52 -7 73 -10 162 -24 268 -31 497
-31 326 0 519 22 805 90 122 29 120 29 290 84 351 115 672 283 984 514 53 39
98 73 101 76 3 3 32 28 65 55 98 81 375 364 456 466 169 214 290 402 397 615
38 77 76 156 84 175 76 179 93 226 133 355 42 139 45 147 49 172 2 10 9 36 15
58 21 81 56 266 67 360 3 33 8 69 10 80 22 112 22 615 -1 745 -2 14 -6 50 -9
80 -5 45 -32 206 -50 295 -64 319 -225 721 -413 1033 -65 109 -205 317 -223
332 -3 3 -29 35 -57 71 -66 86 -102 125 -244 267 -148 149 -194 191 -304 277
-312 245 -658 434 -1035 566 -86 30 -395 113 -460 123 -19 3 -64 10 -100 16
-36 5 -90 13 -120 16 -30 3 -61 7 -69 10 -40 13 -443 22 -586 13z m470 -1162
c11 -3 45 -8 75 -12 30 -4 64 -9 75 -11 30 -6 127 -25 154 -30 13 -3 91 -27
173 -54 160 -53 393 -163 518 -246 l75 -49 650 -2 c357 0 663 -2 678 -2 l28
-1 -75 -145 c-42 -79 -91 -173 -109 -207 -133 -249 -256 -481 -309 -584 l-42
-82 33 -86 c34 -90 95 -318 105 -396 4 -25 12 -70 18 -100 12 -62 16 -434 6
-550 -39 -420 -234 -884 -513 -1220 -326 -392 -712 -641 -1214 -780 -57 -16
-108 -33 -111 -37 -4 -4 -21 -33 -37 -63 -17 -30 -46 -84 -65 -120 -19 -36
-54 -101 -78 -145 -23 -44 -59 -111 -80 -150 -20 -38 -63 -119 -95 -180 -77
-146 -117 -217 -120 -213 -3 3 -202 377 -318 598 -36 69 -83 159 -105 200
l-41 75 -78 23 c-376 110 -599 216 -852 405 -117 87 -353 321 -443 438 -128
166 -243 367 -321 564 -37 91 -100 301 -111 365 -3 19 -15 85 -26 145 -17 95
-19 145 -16 370 3 264 7 299 54 505 25 109 65 242 91 303 31 72 42 41 -109
322 -21 39 -66 124 -100 190 -35 66 -77 147 -95 181 -86 161 -196 374 -193
375 2 0 305 2 673 3 l670 1 50 35 c73 51 96 64 251 140 225 111 528 202 754
225 36 4 66 8 68 10 5 5 434 -3 457 -8z"/>
<path d="M1165 5201 c-2 -4 4 -23 14 -42 10 -19 53 -101 96 -184 43 -82 115
-220 160 -305 45 -85 113 -213 150 -285 65 -126 118 -225 195 -370 41 -77 105
-197 200 -380 35 -66 82 -156 105 -200 23 -44 109 -206 190 -360 81 -154 168
-320 195 -370 26 -49 73 -139 105 -200 32 -60 72 -137 90 -170 18 -33 63 -118
100 -190 37 -71 82 -157 100 -190 18 -33 58 -109 90 -170 32 -60 74 -141 95
-180 21 -38 62 -117 93 -175 30 -58 103 -195 161 -305 59 -110 126 -237 149
-282 23 -45 45 -79 49 -75 3 4 22 36 41 72 145 277 228 433 267 505 15 28 53
100 85 160 32 61 75 143 96 183 22 39 58 107 80 150 23 42 58 109 79 147 21
39 63 120 95 180 32 61 72 137 90 170 32 60 83 155 178 335 80 152 137 260
177 335 21 39 59 111 85 160 26 50 60 113 75 140 15 28 58 109 95 180 37 72
75 144 85 160 10 17 42 77 72 135 82 156 151 288 238 450 43 80 103 195 135
255 32 61 74 142 95 180 194 364 280 534 273 537 -5 2 -318 4 -698 3 l-689 -1
-47 -109 c-65 -152 -64 -147 -189 -450 -62 -148 -118 -283 -125 -300 -8 -16
-43 -102 -80 -190 -36 -88 -70 -169 -75 -180 -5 -11 -73 -173 -151 -360 -249
-600 -291 -700 -299 -708 -4 -4 -28 47 -53 115 -63 171 -137 370 -190 518 -39
106 -162 442 -304 830 -20 52 -50 136 -68 185 -18 50 -35 97 -38 105 -4 8 -25
67 -48 130 -100 279 -121 336 -130 352 -5 10 -9 24 -9 33 0 8 -8 18 -17 23
-22 11 -1461 13 -1468 3z"/>
</g>
</svg>
